<svg xmlns="http://www.w3.org/2000/svg" viewBox="0 0 256 256" width="48" height="48">
  <g>
    <path fill="#ffffff" d="M236,113.7v39l8.2,8.2l-17.1,17.8l-17.3-17.3l11.9-10.8v-30.8
      c-50.4,20.8-66.6,27.3-77.7,32.3c-11.2,5-19.2,5-30.3,0.8c-11.1-4.2-63.9-23.5-90.1-36
      C6,108.6,4.9,103.3,23.8,96.2c24.7-9.3,65.5-24.4,87.1-32.6c12.8-5.2,19.6-8,31.3-2.1
      c21,8.7,68.9,26.7,92.8,36.5
      C255.8,107.1,241.8,110.1,236,113.7z
      M146.3,167.6c12.2-5,28.6-13.3,46.5-21v26.5c0,0-23.1,24.6-63.9,24.6
      c-43.9,0-67.6-24.6-67.6-24.6v-22.4c13.8,5.7,29.4,10.5,48.2,16.9
      C121.1,171.7,135.8,173.2,146.3,167.6z"/>
  </g>
</svg>
